<?xml version="1.0" encoding="utf-8"?>
<!-- Generator: Adobe Illustrator 22.1.0, SVG Export Plug-In . SVG Version: 6.00 Build 0)  -->
<svg version="1.1" id="Lag_1" xmlns="http://www.w3.org/2000/svg" xmlns:xlink="http://www.w3.org/1999/xlink" x="0px" y="0px"
	 viewBox="0 0 64 64" style="enable-background:new 0 0 64 64;" xml:space="preserve">
<style type="text/css">
	.st0{fill-rule:evenodd;clip-rule:evenodd;fill:#373A41;}
</style>
<path id="ARROW__x2F__DOWN_2_" class="st0" d="M8,15.3l24,24L56.3,15l0,0c0.8-0.8,1.9-1.3,3.2-1.3c2.5,0,4.6,2,4.6,4.6
	c0,1.2-0.5,2.4-1.3,3.2l0,0L35.3,48.9l0,0c-0.8,0.9-2,1.4-3.3,1.4c0,0,0,0,0,0s0,0,0,0c-1.3,0-2.5-0.5-3.3-1.4l0,0L1.3,21.5l0,0
	C0.5,20.6,0,19.5,0,18.3c0-2.5,2-4.6,4.6-4.6C6,13.7,7.2,14.3,8,15.3z"/>
</svg>
