<?xml version="1.0" encoding="utf-8"?>
<!-- Generator: Adobe Illustrator 22.1.0, SVG Export Plug-In . SVG Version: 6.00 Build 0)  -->
<svg version="1.1" id="Lag_1" xmlns="http://www.w3.org/2000/svg" xmlns:xlink="http://www.w3.org/1999/xlink" x="0px" y="0px"
	 viewBox="0 0 64 64" style="enable-background:new 0 0 64 64;" xml:space="preserve">
<style type="text/css">
	.st0{fill:#373A41;}
</style>
<path id="ARROW__x2F__DOWN_2_" class="st0" d="M56.1,48.7l-24-24L7.8,49l0,0c-0.8,0.8-1.9,1.3-3.2,1.3c-2.5,0-4.6-2-4.6-4.6
	c0-1.2,0.5-2.4,1.3-3.2l0,0l27.5-27.4l0,0c0.8-0.9,2-1.4,3.3-1.4l0,0l0,0c1.3,0,2.5,0.5,3.3,1.4l0,0l27.4,27.4l0,0
	c0.8,0.9,1.3,2,1.3,3.2c0,2.5-2,4.6-4.6,4.6C58.1,50.3,56.9,49.7,56.1,48.7z"/>
</svg>
