<?xml version="1.0" encoding="utf-8"?>
<!-- Generator: Adobe Illustrator 22.1.0, SVG Export Plug-In . SVG Version: 6.00 Build 0)  -->
<svg version="1.1" id="Lag_1" xmlns="http://www.w3.org/2000/svg" xmlns:xlink="http://www.w3.org/1999/xlink" x="0px" y="0px"
	 viewBox="0 0 64 64" style="enable-background:new 0 0 64 64;" xml:space="preserve">
<style type="text/css">
	.st0{fill:#454A52;}
</style>
<path id="MAGNIFYING_GLASS_2_" class="st0" d="M62.2,53.8c1.1,1.1,1.8,2.6,1.8,4.2c0,3.3-2.7,6-6,6c-1.7,0-3.2-0.7-4.2-1.8l0,0
	L36.2,44.7C32.6,46.8,28.4,48,24,48C10.7,48,0,37.3,0,24S10.7,0,24,0s24,10.7,24,24c0,4.4-1.2,8.6-3.3,12.2L62.2,53.8L62.2,53.8z
	 M24,6C14.1,6,6,14.1,6,24s8.1,18,18,18s18-8.1,18-18S33.9,6,24,6z"/>
</svg>
